<svg height="479pt" viewBox="-40 0 479 479.96928" width="479pt" xmlns="http://www.w3.org/2000/svg"><path d="m398.140625 122.3125-32-32c-1.5-1.5-3.535156-2.34375-5.65625-2.34375h-70.699219l-80.574218-26.855469 7.113281-35.542969c.636719-3.179687-.707031-6.425781-3.402344-8.226562l-24-16c-2.6875-1.792969-6.191406-1.792969-8.878906 0l-24 16c-2.695313 1.800781-4.035157 5.046875-3.398438 8.226562l7.109375 35.574219-80.574218 26.824219h-33.441407c-10.613281-.03125-20.796875 4.1875-28.28125 11.710938l-14.628906 14.632812c-2.289063 2.289062-2.972656 5.730469-1.734375 8.71875s4.152344 4.9375 7.390625 4.9375h4.117187c10.613282-.027344 20.796876 4.1875 28.28125 11.710938l39.921876 39.921874 7.71875 77.167969c.410156 4.101563 3.875 7.21875 8 7.199219h8v32h-8.039063c-4.140625-.019531-7.609375 3.121094-8 7.242188l-16 168c-.214844 2.25.53125 4.484374 2.054687 6.152343 1.523438 1.667969 3.683594 2.617188 5.945313 2.605469h208c2.257813.011719 4.417969-.9375 5.941406-2.605469 1.523438-1.667969 2.273438-3.902343 2.058594-6.152343l-16-168c-.394531-4.121094-3.863281-7.261719-8-7.242188h-8v-32h8c4.121094.019531 7.585937-3.097656 8-7.199219l12.039063-120.800781h40.648437l9.015625 9.015625-5.703125 8.585937c-5.21875 7.8125-8.003906 17-8 26.398438.007813 6.246094-1.839844 12.351562-5.3125 17.542969l-2.6875 4.058593c-5.21875 7.8125-8.003906 17-8 26.398438v4h-8c-4.417969 0-8 3.582031-8 8v32c0 4.417969 3.582031 8 8 8h40c3.445313 0 6.503906-2.203125 7.589844-5.472656l48-144c.957031-2.875.207031-6.042969-1.933594-8.183594zm-213.65625-104.742188 15.101563 10.078126-5.664063 28.320312h-18.878906l-5.664063-28.320312zm-6.707031 54.398438h13.410156l48 16h-109.410156zm38.707031 176h-64v-144h64zm-138.195313-93.503906-26.09375-26.09375c-7.164062-7.222656-16.171874-12.339844-26.039062-14.800782l2.613281-2.617187c4.519531-4.46875 10.613281-6.976563 16.96875-6.984375h27.542969l4.328125 43.28125zm18.195313 20.703125-7.121094-71.199219h47.121094v144h-32.761719zm7.269531 136.800781h32.730469v152h-47.203125zm48.730469 152v-152h64v152zm127.199219 0h-47.199219v-152h32.726563zm-31.199219-168h-128v-32h128zm16.796875-48h-32.796875v-144h47.199219zm31.203125-144h16v16h-16zm42.230469 160h-26.230469v-16h8c4.417969 0 8-3.582031 8-8v-12c-.011719-6.246094 1.839844-12.351562 5.3125-17.542969l2.6875-4.054687c5.21875-7.816406 8-17.003906 8-26.402344-.011719-6.246094 1.839844-12.351562 5.3125-17.542969l9.34375-14.015625c2.113281-3.175781 1.695313-7.398437-1-10.097656l-16-16c-1.5-1.5-3.535156-2.34375-5.65625-2.34375h-8v-16h28.6875l26.160156 26.160156zm0 0"/></svg>